<svg version="1.0"
        xmlns="http://www.w3.org/2000/svg" width="3508.000000pt" fill="#FFFFFF" height="2480.000000pt" viewBox="0 0 3508.000000 2480.000000" preserveAspectRatio="xMidYMid meet">

        <g transform="translate(0.000000,2480.000000) scale(0.100000,-0.100000)" stroke="none">
                <path d="M18600 21469 c-516 -53 -975 -313 -1276 -724 -232 -316 -386 -724
-458 -1215 -23 -154 -34 -254 -29 -262 2 -5 82 -8 178 -8 l173 0 6 28 c3 15
10 56 16 92 27 164 97 411 166 583 245 609 628 967 1133 1058 195 35 535 23
741 -27 472 -114 852 -418 1070 -854 111 -223 189 -490 224 -765 l11 -90 149
-3 149 -3 -6 158 c-15 388 -115 786 -274 1093 -175 337 -444 604 -761 755
-239 115 -469 168 -803 185 -221 11 -289 11 -409 -1z" />
                <path d="M13704 19125 c-23 -66 -116 -368 -186 -600 -16 -55 -33 -111 -38
-125 -14 -39 -161 -518 -210 -680 -17 -58 -35 -116 -40 -130 -13 -38 -122
-389 -179 -580 -18 -58 -49 -158 -70 -222 l-37 -118 682 0 681 0 7 -302 c3
-167 9 -648 12 -1069 l7 -766 -124 -6 c-68 -3 -419 -12 -779 -18 -360 -7 -656
-12 -656 -13 -1 -1 -9 -341 -19 -756 -9 -415 -20 -874 -24 -1020 -4 -146 -6
-266 -6 -267 2 -4 2117 -24 2121 -21 4 5 22 606 35 1223 6 291 14 589 18 663
l6 134 130 -1 c307 -3 1086 -21 1151 -27 l72 -5 6 -342 c17 -912 26 -1506 26
-1641 l0 -149 -980 7 -980 7 0 -1097 0 -1097 -1060 7 -1060 7 -2 -1058 -3
-1058 -471 -3 -471 -2 -12 -43 c-6 -23 -20 -85 -31 -137 -18 -85 -28 -128 -60
-265 -5 -22 -23 -103 -40 -180 -37 -164 -57 -255 -70 -310 -5 -22 -23 -103
-40 -180 -17 -77 -38 -167 -45 -200 -8 -33 -17 -78 -21 -100 l-6 -40 629 0
c407 0 631 4 635 10 5 6 8 305 8 665 l-1 655 1101 3 1100 2 1 -247 c1 -137 5
-436 8 -666 l6 -417 5525 0 c5241 0 5525 1 5523 18 0 9 -8 62 -17 117 -18 118
-37 261 -66 480 -11 88 -25 185 -31 217 -5 31 -9 60 -8 65 3 10 -8 89 -23 166
-11 58 -1 107 21 107 5 0 124 66 263 146 139 81 278 160 308 177 30 16 66 38
80 47 22 14 87 52 223 129 20 11 53 30 72 41 19 11 51 29 70 40 19 11 50 29
69 39 18 11 64 38 101 60 37 23 69 41 70 41 2 0 55 30 117 66 62 37 127 75
145 85 86 49 257 148 338 195 110 64 722 416 785 451 25 14 50 29 55 33 6 4
30 19 55 32 185 104 844 487 901 524 122 81 269 241 354 387 42 71 107 207
116 240 4 18 18 68 31 112 l23 80 3 2185 c2 1625 0 2204 -9 2260 -36 233 -175
513 -338 683 -60 62 -200 177 -216 177 -3 0 -26 14 -50 30 -24 17 -46 30 -49
30 -4 0 -36 18 -72 40 -36 22 -68 40 -69 40 -2 0 -55 30 -117 66 -62 37 -129
75 -148 86 -19 11 -46 28 -60 37 -14 9 -38 23 -55 31 -16 8 -46 24 -65 36 -19
11 -55 32 -80 46 -25 14 -127 73 -228 131 -100 59 -185 107 -188 107 -3 0 -25
14 -49 30 -24 17 -47 30 -50 30 -4 0 -19 8 -33 18 -15 11 -58 36 -97 57 -38
21 -99 55 -134 76 -34 22 -65 39 -67 39 -2 0 -27 14 -56 31 -50 30 -66 39
-153 89 -93 53 -113 65 -155 88 -25 14 -73 43 -108 64 -34 21 -65 38 -68 38
-3 0 -25 14 -49 30 -24 17 -46 30 -49 30 -3 0 -29 14 -58 31 -73 44 -114 67
-178 102 -30 16 -59 33 -65 37 -5 5 -32 20 -60 36 -27 15 -68 39 -90 53 -22
14 -58 35 -80 46 -36 19 -64 35 -170 98 -16 10 -38 20 -47 23 -10 4 -18 10
-18 15 0 5 -4 9 -9 9 -5 0 -95 50 -200 110 -105 61 -194 110 -196 110 -3 0 -5
-13 -5 -30 0 -37 100 -140 164 -170 25 -11 47 -24 51 -30 3 -5 35 -23 70 -40
35 -17 67 -35 70 -40 3 -5 35 -23 70 -40 35 -17 67 -35 70 -40 4 -6 26 -19 50
-30 24 -11 46 -24 50 -30 3 -5 35 -23 70 -40 35 -17 67 -35 70 -40 3 -5 35
-23 70 -40 35 -17 67 -35 70 -40 3 -5 35 -23 70 -40 35 -17 67 -35 70 -40 4
-6 26 -19 50 -30 24 -11 46 -24 50 -30 3 -5 35 -23 70 -40 35 -17 67 -35 70
-40 3 -5 35 -23 70 -40 35 -17 67 -35 70 -40 4 -6 26 -19 50 -30 24 -11 46
-24 50 -30 3 -5 35 -23 70 -40 35 -17 67 -35 70 -40 3 -5 35 -23 70 -40 35
-17 67 -35 70 -40 3 -5 35 -23 70 -40 35 -17 67 -35 70 -40 4 -6 25 -19 49
-30 23 -10 49 -26 56 -35 7 -8 21 -15 31 -15 11 0 19 -3 19 -8 0 -4 15 -13 33
-21 17 -8 40 -21 49 -29 22 -19 108 -62 124 -62 6 0 14 -6 17 -14 3 -8 35 -28
71 -46 36 -17 68 -35 71 -40 3 -5 23 -17 43 -26 20 -10 45 -24 54 -32 23 -19
108 -62 124 -62 6 0 14 -6 17 -14 6 -14 102 -66 123 -66 6 0 14 -7 17 -15 3
-8 26 -23 50 -34 24 -11 50 -27 57 -36 7 -8 21 -15 31 -15 11 0 19 -3 19 -8 0
-4 15 -13 33 -21 17 -8 40 -21 49 -29 21 -18 108 -62 122 -62 6 0 17 -9 24
-20 7 -11 21 -20 32 -20 11 0 20 -4 20 -8 0 -5 16 -14 35 -22 20 -8 43 -22 52
-32 9 -10 21 -18 28 -18 7 0 20 -9 30 -20 10 -11 23 -20 29 -20 14 0 249 -232
252 -250 2 -8 9 -19 16 -25 7 -5 19 -22 25 -37 7 -16 16 -28 21 -28 5 0 15
-19 22 -41 8 -23 22 -46 32 -53 10 -6 18 -19 18 -28 0 -22 31 -88 42 -88 4 0
8 -11 8 -24 0 -34 31 -128 49 -150 14 -16 16 -230 16 -2231 0 -1676 -3 -2215
-12 -2226 -14 -17 -43 -98 -43 -121 0 -10 -9 -33 -20 -53 -11 -20 -20 -41 -20
-49 0 -16 -43 -101 -62 -124 -8 -9 -22 -33 -31 -52 -8 -19 -27 -46 -41 -59
-14 -14 -26 -29 -26 -34 0 -5 -18 -27 -40 -49 -22 -23 -40 -46 -40 -53 0 -14
-72 -85 -86 -85 -6 0 -26 -16 -45 -36 -18 -19 -52 -44 -74 -54 -22 -11 -49
-25 -60 -32 -11 -7 -38 -24 -60 -38 -22 -14 -47 -29 -55 -33 -8 -4 -28 -16
-45 -26 -16 -11 -37 -20 -46 -20 -9 -1 -19 -8 -22 -16 -5 -12 -84 -55 -103
-55 -5 0 -19 -10 -33 -23 -15 -13 -51 -34 -81 -47 -30 -13 -60 -30 -66 -37 -6
-7 -16 -13 -21 -13 -6 0 -16 -7 -23 -15 -7 -8 -21 -15 -31 -15 -10 0 -22 -6
-26 -14 -4 -8 -35 -28 -69 -45 -33 -16 -66 -37 -74 -45 -7 -9 -20 -16 -30 -16
-9 0 -29 -9 -43 -20 -14 -11 -32 -20 -41 -20 -9 0 -16 -4 -16 -9 0 -12 -66
-51 -86 -51 -8 0 -17 -7 -20 -15 -4 -8 -12 -15 -19 -15 -7 0 -18 -6 -24 -13
-6 -8 -29 -20 -51 -27 -23 -8 -46 -22 -51 -32 -5 -10 -14 -18 -19 -18 -13 0
-51 -18 -85 -40 -16 -10 -50 -29 -75 -42 -25 -13 -46 -26 -48 -30 -2 -5 -12
-8 -22 -8 -11 0 -24 -9 -30 -20 -6 -11 -17 -20 -24 -20 -18 0 -64 -24 -79 -42
-7 -8 -37 -25 -67 -38 -30 -14 -59 -30 -63 -37 -4 -7 -13 -13 -20 -13 -7 0
-29 -11 -49 -25 -20 -14 -44 -25 -52 -25 -8 0 -19 -6 -23 -14 -4 -8 -38 -28
-74 -45 -37 -17 -69 -37 -72 -44 -3 -8 -19 -17 -36 -20 -18 -4 -42 -18 -55
-32 -13 -14 -26 -25 -29 -25 -19 0 -116 -52 -121 -65 -3 -8 -11 -15 -19 -15
-21 0 -118 -51 -123 -65 -3 -7 -19 -15 -35 -19 -16 -3 -41 -17 -55 -31 -14
-14 -27 -25 -29 -25 -18 0 -114 -53 -119 -65 -3 -8 -15 -15 -26 -15 -11 0 -20
-4 -20 -10 0 -5 -6 -10 -13 -10 -22 0 -78 -31 -84 -46 -3 -8 -9 -14 -14 -14
-15 0 -119 -50 -119 -58 0 -4 -21 -16 -46 -27 -25 -11 -49 -25 -52 -31 -4 -6
-38 -26 -75 -43 -38 -18 -71 -39 -74 -47 -3 -8 -14 -14 -24 -14 -10 0 -19 -4
-19 -10 0 -5 -6 -10 -13 -10 -18 0 -75 -29 -83 -41 -3 -6 -35 -24 -71 -41 -35
-16 -67 -36 -70 -44 -3 -8 -11 -14 -19 -14 -7 0 -48 -18 -90 -40 -43 -22 -81
-37 -86 -32 -4 4 -13 46 -19 92 -6 47 -15 91 -19 99 -16 31 6 53 119 117 64
37 287 166 496 287 375 217 409 237 483 278 20 12 62 36 92 54 46 27 172 100
618 356 17 11 47 27 65 38 17 10 120 69 227 131 107 62 209 120 225 130 17 10
89 51 160 92 115 66 540 312 620 358 17 10 75 43 130 75 146 84 211 133 295
222 65 68 97 112 190 253 15 23 23 41 65 133 33 74 68 198 81 287 21 148 20
4028 -1 4169 -40 267 -162 502 -364 701 -101 100 -117 111 -331 234 -124 71
-245 141 -270 156 -25 15 -65 39 -90 53 -25 13 -146 83 -270 154 -124 72 -344
199 -490 283 -146 84 -317 183 -380 220 -63 37 -135 78 -160 92 -67 37 -546
314 -610 352 -30 19 -75 45 -100 58 -25 14 -101 58 -170 98 -69 40 -141 81
-160 92 -19 11 -150 87 -291 169 -273 158 -367 206 -439 228 -135 41 -199 52
-346 58 -153 7 -285 -11 -436 -58 -101 -32 -281 -126 -310 -163 -16 -20 -17
-20 -13 -1 2 11 4 23 4 26 1 4 11 9 22 12 17 5 20 11 15 31 -3 13 -10 60 -16
103 -5 43 -14 110 -20 148 -6 39 -24 171 -40 295 -53 395 -61 454 -70 510 -5
30 -11 80 -15 110 -3 30 -11 84 -17 120 l-10 65 -5025 0 c-3342 0 -5027 -3
-5029 -10z m10210 -1230 c7 -34 4 -39 -59 -101 -37 -35 -87 -73 -110 -84 -24
-11 -46 -24 -50 -30 -3 -5 -35 -23 -70 -40 -35 -17 -67 -35 -70 -40 -4 -6 -25
-19 -48 -29 -23 -11 -58 -30 -77 -43 -19 -13 -52 -31 -72 -41 -20 -10 -40 -22
-43 -27 -3 -5 -35 -23 -70 -40 -35 -17 -67 -35 -70 -40 -3 -5 -35 -23 -70 -40
-35 -17 -67 -35 -70 -40 -3 -5 -35 -23 -70 -40 -35 -17 -67 -36 -71 -41 -4 -6
-26 -20 -50 -30 -24 -11 -46 -24 -49 -29 -3 -5 -35 -23 -70 -40 -35 -17 -67
-35 -70 -40 -3 -6 -35 -24 -71 -41 -35 -17 -67 -35 -70 -40 -3 -5 -25 -18 -49
-29 -24 -11 -47 -25 -50 -31 -4 -6 -36 -24 -71 -40 -35 -16 -66 -34 -69 -39
-3 -5 -35 -23 -70 -40 -35 -17 -67 -35 -70 -40 -3 -5 -35 -23 -70 -40 -35 -17
-67 -35 -70 -40 -4 -6 -26 -19 -50 -30 -24 -11 -46 -24 -50 -30 -3 -5 -35 -23
-70 -40 -35 -17 -67 -35 -70 -40 -3 -5 -35 -23 -70 -40 -35 -17 -67 -35 -70
-40 -3 -5 -34 -23 -69 -40 -35 -16 -69 -37 -76 -45 -7 -8 -17 -15 -22 -15 -6
0 -29 -12 -52 -28 -22 -15 -67 -40 -98 -55 -32 -16 -60 -33 -64 -38 -3 -6 -35
-24 -70 -40 -35 -16 -66 -34 -69 -39 -3 -6 -26 -19 -50 -30 -24 -11 -47 -24
-50 -30 -3 -5 -35 -24 -71 -41 -35 -17 -67 -35 -69 -40 -3 -4 -35 -22 -70 -39
-35 -17 -67 -35 -70 -40 -3 -5 -34 -23 -69 -40 -35 -16 -69 -37 -76 -45 -7 -8
-18 -15 -25 -15 -7 0 -19 -7 -26 -16 -7 -9 -21 -19 -31 -23 -25 -9 -248 -232
-248 -247 0 -8 -9 -19 -20 -26 -11 -7 -20 -21 -20 -30 0 -10 -9 -23 -20 -30
-11 -7 -20 -18 -20 -24 0 -17 -29 -70 -45 -84 -8 -7 -15 -21 -15 -31 0 -10 -9
-34 -20 -54 -11 -20 -20 -44 -20 -55 0 -10 -4 -22 -10 -25 -5 -3 -10 -17 -10
-30 0 -13 -4 -27 -10 -30 -5 -3 -10 -17 -10 -31 0 -13 -4 -24 -10 -24 -6 0
-10 -29 -10 -68 0 -37 -5 -73 -10 -78 -11 -11 -7 -4131 5 -4249 4 -38 11 -74
16 -79 5 -6 9 -20 9 -32 0 -13 5 -26 10 -29 6 -3 10 -17 10 -30 0 -14 9 -40
20 -60 11 -20 20 -44 20 -55 0 -10 5 -22 10 -25 6 -3 10 -15 10 -26 0 -10 5
-19 10 -19 6 0 10 -9 10 -19 0 -10 7 -21 15 -24 8 -3 23 -25 34 -49 10 -24 31
-54 45 -67 14 -14 26 -30 26 -38 0 -7 18 -29 40 -49 22 -20 40 -42 40 -50 0
-15 69 -83 86 -84 5 0 26 -16 45 -36 18 -19 52 -44 74 -55 22 -11 54 -28 70
-39 17 -11 40 -24 52 -29 11 -5 24 -14 27 -20 4 -6 36 -24 71 -41 35 -17 67
-35 70 -40 3 -5 34 -23 69 -39 35 -16 67 -34 70 -40 4 -6 36 -24 71 -41 35
-17 67 -35 70 -40 4 -6 26 -19 50 -30 24 -11 47 -24 50 -30 3 -5 34 -23 69
-39 35 -16 66 -34 70 -39 3 -5 35 -24 70 -41 36 -17 68 -36 71 -41 3 -6 26
-19 50 -30 24 -11 46 -24 50 -30 3 -5 35 -23 70 -40 35 -17 67 -35 70 -40 3
-5 35 -23 70 -40 35 -17 67 -35 70 -40 3 -5 36 -24 73 -41 37 -18 69 -36 70
-41 2 -4 23 -17 47 -28 24 -11 46 -24 50 -30 3 -5 35 -23 70 -40 35 -17 67
-35 70 -40 3 -5 35 -23 70 -40 35 -17 67 -35 70 -40 4 -6 37 -24 76 -42 38
-17 69 -35 69 -39 0 -5 23 -18 50 -30 28 -12 50 -25 50 -29 0 -10 58 -40 77
-40 7 0 13 -4 13 -10 0 -5 6 -10 14 -10 7 0 19 -7 26 -15 12 -15 65 -42 125
-65 14 -5 25 -14 25 -19 0 -11 56 -41 75 -41 7 0 15 -6 18 -14 6 -15 62 -46
84 -46 7 0 13 -4 13 -10 0 -5 9 -10 20 -10 11 0 23 -7 26 -15 4 -8 23 -22 43
-31 66 -29 101 -48 101 -56 0 -8 59 -38 77 -38 7 0 13 -4 13 -10 0 -5 9 -10
20 -10 10 0 24 -9 30 -20 6 -11 20 -20 30 -20 11 0 20 -4 20 -10 0 -5 6 -10
13 -10 8 0 22 -9 32 -20 10 -11 26 -20 37 -20 10 0 18 -4 18 -10 0 -5 6 -10
14 -10 18 0 76 -32 76 -42 0 -7 59 -37 115 -58 14 -5 25 -13 25 -17 0 -8 33
-27 101 -57 20 -9 39 -22 42 -29 8 -20 174 -103 277 -137 271 -90 610 -94 925
-11 61 16 111 28 112 28 0 -1 3 -18 5 -37 3 -31 -1 -36 -40 -58 -68 -38 -230
-89 -342 -107 -148 -25 -389 -17 -520 18 -52 14 -115 33 -140 42 -47 18 -221
105 -230 116 -3 4 -34 22 -70 41 -36 19 -84 46 -107 61 -24 15 -44 27 -47 27
-2 0 -45 25 -95 55 -51 30 -93 55 -95 55 -2 0 -34 18 -71 41 -37 22 -83 49
-101 60 -19 10 -51 29 -71 41 -21 11 -60 33 -88 48 -27 15 -108 61 -178 103
-71 42 -131 77 -134 77 -3 0 -17 8 -31 18 -15 11 -52 32 -82 49 -63 34 -89 49
-215 123 -128 75 -206 120 -210 120 -2 0 -33 18 -69 40 -36 22 -68 40 -72 40
-3 0 -25 14 -49 30 -24 17 -46 30 -48 30 -5 0 -159 88 -214 123 -24 15 -45 27
-48 27 -2 0 -34 18 -70 40 -36 22 -68 40 -71 40 -3 0 -18 9 -34 20 -15 11 -63
38 -106 61 -44 23 -90 49 -104 58 -35 22 -55 34 -135 80 -38 23 -90 53 -115
67 -86 51 -115 68 -157 89 -23 12 -48 26 -55 32 -7 6 -33 21 -58 35 -25 14
-90 51 -145 83 -55 32 -115 66 -132 76 -79 45 -105 60 -140 80 -21 12 -50 30
-65 40 -14 11 -29 19 -34 19 -32 0 -218 174 -297 279 -79 103 -207 335 -207
374 0 7 -9 40 -19 73 -55 169 -52 68 -49 2384 4 1927 6 2142 20 2210 27 121
92 307 128 360 9 14 24 41 33 61 9 20 23 42 32 49 8 7 15 18 15 25 0 6 9 20
20 30 11 10 20 23 20 29 0 14 232 246 246 246 6 0 19 9 29 20 10 11 23 20 30
20 6 0 20 8 31 18 10 10 45 30 77 46 31 15 63 33 70 39 6 7 41 27 77 45 36 18
88 46 115 62 28 16 60 34 72 39 11 5 24 15 28 20 3 6 26 20 50 31 24 11 46 24
50 30 3 5 35 23 70 40 35 17 70 36 77 43 7 7 35 23 63 37 27 14 83 45 123 70
41 25 102 60 135 78 34 19 69 40 77 46 8 7 41 25 72 40 32 15 60 32 63 37 4 5
25 18 48 28 23 11 59 31 80 45 21 14 40 26 43 26 2 0 23 12 47 27 23 14 67 40
97 56 30 16 66 37 80 45 14 9 50 29 80 45 30 16 62 34 70 41 8 7 40 25 70 40
30 16 62 34 70 40 8 7 29 18 45 26 17 8 38 21 48 29 20 17 47 32 103 60 22 11
47 27 54 36 7 8 21 15 30 15 10 0 20 3 22 8 2 4 21 16 43 28 67 35 139 76 152
86 7 6 39 23 70 40 32 16 68 39 81 51 12 11 22 17 22 12 0 -4 8 -1 18 7 9 8
34 22 54 32 20 9 40 21 43 26 3 5 34 23 69 40 35 16 69 37 76 45 7 8 21 15 31
15 11 0 19 5 19 10 0 6 6 10 13 10 7 0 23 9 35 20 12 11 25 20 30 20 12 0 44
17 97 51 22 14 45 27 50 28 6 1 17 9 26 17 9 8 18 12 21 9 3 -3 11 1 18 10 7
8 18 15 25 15 7 0 18 7 25 15 7 8 41 29 77 46 35 17 69 39 75 49 16 25 24 18
32 -25z m-24 -199 c0 -3 -64 -42 -142 -87 -79 -45 -191 -111 -251 -145 -59
-35 -110 -64 -113 -64 -16 0 23 33 60 51 52 25 169 91 187 104 8 6 28 17 44
25 17 8 48 26 70 40 56 34 136 80 143 80 1 0 2 -2 2 -4z m-525 -305 c-6 -6
-156 -94 -335 -197 -179 -102 -338 -194 -355 -204 -16 -9 -106 -61 -200 -115
-93 -54 -240 -138 -325 -188 -85 -49 -159 -92 -165 -95 -5 -3 -4 2 4 12 8 9
34 26 57 36 24 11 46 24 49 30 3 5 23 17 43 27 20 9 65 34 100 55 34 21 65 38
68 38 3 0 26 14 51 30 25 17 66 42 92 56 113 61 156 86 161 93 3 4 31 19 62
35 32 15 60 31 63 36 3 5 35 23 70 40 35 17 67 35 70 40 4 6 26 19 50 30 24
11 46 24 50 30 3 5 35 23 70 40 35 17 67 35 70 40 3 5 31 21 63 36 31 15 65
34 74 42 35 30 138 78 113 53z m-1412 -816 c-11 -8 -153 -90 -314 -183 -162
-93 -350 -202 -419 -242 -69 -40 -213 -123 -320 -184 -267 -153 -303 -177
-394 -265 -44 -42 -71 -64 -59 -49 53 71 220 203 302 239 17 8 31 17 31 20 0
4 8 9 18 12 9 4 40 20 67 36 28 17 65 38 83 47 17 9 32 20 32 25 0 5 9 9 20 9
11 0 20 3 20 8 0 4 15 13 33 21 17 8 41 21 52 31 11 9 34 22 52 29 17 7 39 21
49 32 9 10 20 16 25 14 4 -3 10 -1 14 5 3 5 25 19 48 30 52 25 169 91 188 106
8 6 31 18 51 28 20 9 40 21 43 26 3 5 35 23 70 40 35 17 67 35 70 40 3 5 23
17 43 27 20 9 55 28 77 42 82 52 176 96 118 56z m2889 -439 c53 -3 160 -15
237 -26 362 -53 668 -150 1003 -319 305 -154 564 -340 802 -577 277 -276 464
-532 626 -859 116 -236 146 -312 229 -580 8 -26 33 -131 61 -260 78 -358 72
-926 -14 -1290 -32 -136 -39 -161 -58 -225 -89 -292 -147 -422 -331 -744 -108
-188 -161 -265 -292 -422 -363 -437 -849 -779 -1386 -975 -94 -34 -329 -102
-414 -118 -33 -7 -76 -16 -95 -21 -56 -13 -178 -30 -208 -29 -23 1 -22 2 8 8
41 7 40 -20 4 246 -36 271 -28 244 -72 234 -53 -12 -549 -11 -557 1 -3 6 -39
10 -79 10 -39 0 -76 4 -82 9 -5 5 -31 12 -59 15 -81 8 -129 17 -150 26 -11 5
-36 11 -55 15 -19 3 -50 8 -68 12 -18 3 -35 9 -38 14 -3 5 -16 9 -29 9 -13 0
-27 5 -30 10 -3 6 -17 10 -30 10 -13 0 -27 5 -30 10 -3 6 -13 10 -20 10 -8 0
-44 14 -80 30 -36 17 -69 30 -73 30 -12 0 -257 124 -260 132 -2 5 -9 8 -15 8
-6 0 -27 11 -46 23 -20 13 -70 46 -111 73 -41 27 -77 51 -80 54 -3 3 -23 19
-45 35 -155 113 -351 303 -485 469 -110 137 -255 360 -301 464 -7 17 -17 32
-21 32 -5 0 -8 7 -8 15 0 8 -4 23 -10 33 -19 35 -70 146 -70 154 0 5 -9 28
-20 50 -11 23 -20 50 -20 59 0 10 -4 20 -9 23 -5 3 -11 18 -14 33 -3 16 -10
45 -16 66 -34 116 -41 144 -62 242 -26 122 -51 390 -52 550 0 96 17 327 32
435 23 157 83 391 131 505 4 11 13 36 20 55 16 46 36 94 66 154 13 28 24 53
24 57 0 4 23 46 50 94 28 48 50 88 50 91 0 20 178 270 266 374 137 161 401
406 505 467 16 10 29 21 29 25 0 4 6 8 13 8 8 0 22 9 32 20 10 11 23 20 30 20
6 0 20 8 31 18 27 23 115 71 254 138 161 78 166 80 255 109 44 15 89 31 100
36 11 5 45 15 75 23 30 8 62 17 70 20 29 12 204 46 234 46 22 0 27 3 17 9 -11
7 -9 10 10 13 28 3 28 5 4 173 -8 55 -20 143 -26 197 l-13 96 -41 -4 c-73 -8
-141 -22 -270 -55 -22 -6 -55 -13 -73 -16 -18 -3 -35 -9 -38 -14 -3 -5 -16 -9
-29 -9 -13 0 -27 -4 -30 -10 -3 -5 -17 -10 -30 -10 -13 0 -27 -4 -30 -10 -3
-5 -15 -10 -25 -10 -11 0 -35 -9 -55 -20 -20 -11 -42 -20 -50 -20 -8 0 -30 -9
-50 -20 -20 -11 -42 -20 -49 -20 -8 0 -45 -16 -82 -35 -38 -19 -74 -35 -80
-35 -6 0 -17 -6 -23 -14 -7 -8 -22 -17 -34 -20 -28 -7 -117 -56 -215 -118 -24
-16 -47 -28 -51 -28 -4 0 -16 -9 -26 -20 -10 -11 -23 -20 -30 -20 -7 0 -20 -9
-30 -20 -10 -11 -23 -20 -30 -20 -6 0 -24 -13 -40 -30 -16 -16 -34 -30 -40
-30 -6 0 -24 -13 -40 -30 -16 -16 -34 -30 -40 -30 -6 0 -33 -22 -60 -50 -27
-27 -54 -50 -60 -50 -13 0 -275 -262 -275 -274 0 -5 -26 -38 -57 -72 -82 -90
-123 -140 -123 -151 0 -6 -7 -16 -15 -23 -18 -15 -115 -159 -139 -207 -9 -17
-21 -35 -28 -39 -35 -22 127 222 253 382 134 168 388 413 574 554 270 204 655
403 945 490 41 13 84 26 95 31 24 10 148 42 230 58 84 17 144 31 185 41 70 18
413 39 530 33 25 -1 89 -5 142 -7z m-4448 -551 c-9 -14 -19 -23 -22 -20 -5 4
26 45 35 45 2 0 -4 -11 -13 -25z m-44 -64 c-5 -11 -15 -23 -22 -27 -7 -5 -8
-2 -3 7 21 37 44 55 25 20z m-40 -62 c-7 -11 -14 -18 -17 -15 -3 3 0 12 7 21
18 21 23 19 10 -6z m-159 -385 c-5 -16 -10 -21 -10 -12 -1 18 10 51 15 45 2
-1 -1 -16 -5 -33z m-24 -3196 c-1 -568 -2 -106 -2 1027 0 1133 1 1598 2 1033
2 -564 2 -1491 0 -2060z m1753 2648 c0 -3 -4 -8 -10 -11 -5 -3 -10 -1 -10 4 0
6 5 11 10 11 6 0 10 -2 10 -4z m-159 -279 c-10 -9 -11 -8 -5 6 3 10 9 15 12
12 3 -3 0 -11 -7 -18z m-15 -43 c-4 -9 -9 -15 -11 -12 -3 3 -3 13 1 22 4 9 9
15 11 12 3 -3 3 -13 -1 -22z m-25 -47 c-10 -9 -11 -8 -5 6 3 10 9 15 12 12 3
-3 0 -11 -7 -18z m-40 -104 c-12 -20 -14 -14 -5 12 4 9 9 14 11 11 3 -2 0 -13
-6 -23z m-128 -424 c-6 -6 -7 3 -4 23 4 28 6 29 9 9 2 -13 0 -27 -5 -32z m-16
-76 c-3 -10 -5 -2 -5 17 0 19 2 27 5 18 2 -10 2 -26 0 -35z m-20 -100 c-3 -10
-5 -4 -5 12 0 17 2 24 5 18 2 -7 2 -21 0 -30z m-20 -105 c-3 -7 -5 -2 -5 12 0
14 2 19 5 13 2 -7 2 -19 0 -25z m0 -40 c-3 -8 -6 -5 -6 6 -1 11 2 17 5 13 3
-3 4 -12 1 -19z m-20 -125 c-3 -10 -5 -4 -5 12 0 17 2 24 5 18 2 -7 2 -21 0
-30z m0 -75 c-3 -8 -6 -5 -6 6 -1 11 2 17 5 13 3 -3 4 -12 1 -19z m0 -420 c-3
-8 -6 -5 -6 6 -1 11 2 17 5 13 3 -3 4 -12 1 -19z m0 -85 c-3 -10 -5 -2 -5 17
0 19 2 27 5 18 2 -10 2 -26 0 -35z m20 -165 c-2 -13 -4 -3 -4 22 0 25 2 35 4
23 2 -13 2 -33 0 -45z m21 -79 c-3 -8 -7 -3 -11 10 -4 17 -3 21 5 13 5 -5 8
-16 6 -23z m19 -136 c-3 -10 -5 -4 -5 12 0 17 2 24 5 18 2 -7 2 -21 0 -30z
m20 -80 c-3 -10 -5 -4 -5 12 0 17 2 24 5 18 2 -7 2 -21 0 -30z m23 -58 c0 -5
-5 -3 -10 5 -5 8 -10 20 -10 25 0 6 5 3 10 -5 5 -8 10 -19 10 -25z m17 -87
c-3 -8 -6 -5 -6 6 -1 11 2 17 5 13 3 -3 4 -12 1 -19z m53 -153 c0 -5 -5 -3
-10 5 -5 8 -10 20 -10 25 0 6 5 3 10 -5 5 -8 10 -19 10 -25z m20 -60 c0 -5 -5
-3 -10 5 -5 8 -10 20 -10 25 0 6 5 3 10 -5 5 -8 10 -19 10 -25z m20 -50 c0 -5
-5 -3 -10 5 -5 8 -10 20 -10 25 0 6 5 3 10 -5 5 -8 10 -19 10 -25z m18 -50
c-3 -3 -9 2 -12 12 -6 14 -5 15 5 6 7 -7 10 -15 7 -18z m20 -50 c-3 -3 -9 2
-12 12 -6 14 -5 15 5 6 7 -7 10 -15 7 -18z m42 -90 c0 -5 -5 -3 -10 5 -5 8
-10 20 -10 25 0 6 5 3 10 -5 5 -8 10 -19 10 -25z m18 -40 c-3 -3 -9 2 -12 12
-6 14 -5 15 5 6 7 -7 10 -15 7 -18z m20 -40 c-3 -3 -9 2 -12 12 -6 14 -5 15 5
6 7 -7 10 -15 7 -18z m20 -40 c-3 -3 -9 2 -12 12 -6 14 -5 15 5 6 7 -7 10 -15
7 -18z m37 -62 c15 -27 39 -68 52 -93 14 -25 32 -52 39 -61 8 -8 14 -19 14
-23 0 -9 101 -156 144 -211 42 -53 56 -75 35 -58 -48 38 -338 493 -316 493 3
0 17 -21 32 -47z m555 -733 c91 -91 195 -189 230 -217 36 -29 79 -64 95 -79
30 -26 29 -26 -10 2 -136 95 -396 343 -513 490 -38 47 -44 57 -15 24 26 -30
122 -129 213 -220z m-2228 105 c3 -13 1 -22 -3 -19 -9 5 -13 44 -5 44 2 0 6
-11 8 -25z m15 -67 c-3 -8 -6 -5 -6 6 -1 11 2 17 5 13 3 -3 4 -12 1 -19z m20
-70 c-3 -8 -6 -5 -6 6 -1 11 2 17 5 13 3 -3 4 -12 1 -19z m104 -213 c7 -13 3
-12 -10 5 -11 14 -21 30 -21 35 0 11 14 -7 31 -40z m77 -112 c29 -40 50 -73
48 -73 -7 0 -91 112 -106 140 -18 35 -2 17 58 -67z m2514 -58 c53 -36 99 -65
102 -65 3 0 25 -13 49 -30 25 -16 49 -30 53 -30 5 0 20 -10 34 -21 l25 -20
-35 17 c-95 46 -351 212 -367 237 -4 7 4 4 17 -5 14 -10 69 -47 122 -83z
m-2168 -259 c64 -38 114 -71 112 -74 -3 -2 -18 5 -34 17 -17 12 -33 21 -35 21
-26 0 -221 141 -276 200 -65 70 -58 66 26 -11 60 -56 130 -108 207 -153z
m-4364 -936 l0 -1060 -920 0 -920 0 0 1060 0 1060 920 0 920 0 0 -1060z m6855
1005 c22 -14 36 -25 30 -25 -5 0 -28 11 -50 25 -22 13 -35 24 -30 24 6 0 28
-11 50 -24z m180 -83 c50 -21 119 -49 155 -61 36 -12 74 -26 85 -31 11 -4 56
-19 100 -33 44 -14 73 -26 64 -26 -41 -2 -384 124 -478 175 -59 32 -39 26 74
-24z m-2405 -140 c52 -30 118 -69 147 -86 29 -16 51 -31 49 -33 -2 -2 -59 29
-127 68 -68 39 -140 80 -159 91 -41 24 -66 46 -30 28 14 -7 68 -38 120 -68z
m2935 -38 c40 -11 42 -13 13 -9 -78 10 -108 17 -114 27 -6 9 14 6 101 -18z
m230 -44 c66 -11 136 -21 155 -24 19 -2 4 -2 -35 0 -97 5 -280 36 -293 49 -4
4 7 5 23 1 17 -3 84 -15 150 -26z m273 -37 c-10 -2 -28 -2 -40 0 -13 2 -5 4
17 4 22 1 32 -1 23 -4z m-3107 -76 c13 -10 -3 -3 -36 14 -33 17 -67 38 -75 46
-16 17 72 -31 111 -60z m143 -78 c112 -64 145 -91 49 -39 -123 66 -177 100
-161 100 3 0 54 -27 112 -61z m152 -97 c-4 -3 -14 2 -24 12 -16 18 -16 18 6 6
13 -6 21 -14 18 -18z m122 -61 c13 -7 22 -15 19 -17 -5 -5 -127 65 -127 73 0
3 19 -6 43 -20 23 -13 53 -30 65 -36z m147 -88 c11 -7 17 -13 13 -13 -11 0
-82 40 -108 61 -24 20 49 -17 95 -48z m65 -39 c0 -2 -9 0 -20 6 -11 6 -20 13
-20 16 0 2 9 0 20 -6 11 -6 20 -13 20 -16z m300 -169 c348 -201 390 -226 390
-231 0 -5 -29 11 -178 98 -45 26 -84 48 -86 48 -2 0 -56 32 -120 70 -65 39
-119 70 -121 70 -1 0 -33 18 -69 40 -36 22 -70 40 -75 40 -5 0 -15 8 -22 17
-16 19 -26 25 281 -152z m425 -253 c-3 -3 -11 0 -18 7 -9 10 -8 11 6 5 10 -3
15 -9 12 -12z m105 -57 c0 -10 -16 -4 -40 16 l-25 20 33 -16 c17 -8 32 -18 32
-20z m70 -41 c0 -2 -13 2 -30 11 -16 9 -30 18 -30 21 0 2 14 -2 30 -11 17 -9
30 -18 30 -21z m105 -58 c11 -9 -6 -4 -37 11 -32 16 -57 31 -58 36 0 9 66 -24
95 -47z m103 -62 c-6 -6 -66 25 -74 37 -3 6 13 1 36 -11 23 -12 40 -23 38 -26z
m247 -139 c94 -53 175 -101 180 -107 13 -13 -86 39 -142 75 -24 15 -45 27 -48
27 -2 0 -33 17 -67 38 -35 20 -74 43 -88 50 -14 7 -36 22 -50 33 l-25 21 35
-20 c19 -11 112 -63 205 -117z m265 -151 c33 -20 59 -38 57 -41 -4 -3 -112 59
-125 72 -14 14 12 2 68 -31z m178 -103 c13 -7 22 -15 19 -17 -5 -5 -127 65
-127 73 0 3 19 -6 43 -20 23 -13 53 -30 65 -36z m120 -71 c39 -23 72 -44 72
-47 0 -5 -109 56 -141 80 -34 26 -15 16 69 -33z m170 -98 c24 -13 41 -26 39
-28 -2 -3 -30 11 -62 30 -98 60 -80 58 23 -2z m182 -95 c19 -9 30 -17 24 -17
-14 0 -154 68 -154 75 0 3 21 -5 48 -18 26 -13 63 -31 82 -40z m1015 53 c-3
-5 -12 -10 -18 -10 -7 0 -6 4 3 10 19 12 23 12 15 0z m-895 -91 c9 -5 1 -6
-20 -2 -19 3 -42 10 -50 14 -9 5 -1 6 20 2 19 -3 42 -10 50 -14z m47 -15 c-3
-3 -12 -4 -19 -1 -8 3 -5 6 6 6 11 1 17 -2 13 -5z"/>
                <path d="M24349 15625 c-3 -2 -29 -6 -59 -8 -30 -2 -57 -8 -59 -13 -4 -10 13
-139 35 -278 8 -50 17 -113 20 -140 3 -28 9 -75 14 -104 5 -29 19 -128 30
-220 12 -92 22 -168 24 -169 1 -1 441 -3 977 -4 536 0 991 -4 1012 -7 l38 -7
-67 -105 c-187 -293 -285 -447 -357 -560 -44 -69 -111 -174 -149 -233 -38 -60
-88 -139 -112 -175 -62 -97 -169 -265 -281 -442 -54 -85 -119 -186 -144 -225
-46 -73 -109 -172 -325 -509 -70 -109 -125 -203 -124 -208 2 -5 303 -9 678
-11 l675 -2 0 -535 0 -535 -662 -3 c-591 -2 -663 -4 -663 -18 0 -15 6 -61 31
-229 7 -44 13 -91 14 -105 2 -27 19 -152 40 -300 8 -52 19 -135 26 -183 7 -59
16 -90 26 -94 24 -9 298 47 433 89 68 21 95 30 115 38 11 5 63 25 115 45 52
20 154 67 227 105 763 394 1302 1133 1437 1970 49 309 44 738 -14 995 -85 380
-204 668 -395 960 -278 422 -643 741 -1096 959 -276 133 -538 211 -841 251
-105 14 -607 22 -619 10z"/>
                <path d="M23203 14674 c-10 -5 -13 -120 -13 -530 l0 -524 620 0 620 0 0 -25
c0 -14 -20 -57 -45 -95 -25 -39 -66 -102 -91 -141 -25 -39 -53 -85 -63 -102
-20 -34 -178 -289 -216 -347 -64 -99 -115 -181 -115 -186 0 -2 -22 -38 -50
-80 -27 -41 -50 -78 -50 -80 0 -3 -13 -24 -29 -47 -38 -56 -171 -268 -171
-273 0 -2 -25 -44 -56 -92 -32 -48 -67 -103 -79 -122 -12 -19 -37 -60 -56 -90
-51 -79 -100 -161 -116 -191 -7 -15 -20 -32 -28 -39 -8 -7 -15 -17 -15 -22 0
-5 -22 -42 -50 -83 -27 -41 -50 -77 -50 -80 0 -4 -13 -26 -30 -50 -16 -24 -30
-48 -30 -53 0 -5 -9 -17 -20 -27 -11 -10 -20 -22 -20 -26 0 -8 -23 -45 -101
-162 -22 -32 -39 -60 -39 -62 0 -3 437 -5 971 -5 l971 0 -6 33 c-5 29 -189
1364 -221 1607 -25 187 -45 333 -60 445 -9 61 -20 146 -26 190 -5 44 -14 107
-19 140 -5 33 -16 114 -25 180 -9 66 -20 149 -25 185 -5 36 -16 119 -25 185
-9 66 -22 165 -30 220 -8 55 -21 154 -30 220 -10 66 -19 122 -22 125 -6 7
-1145 10 -1160 4z"/>
                <path d="M11400 15435 l0 -775 870 0 870 0 0 775 0 775 -870 0 -870 0 0 -775z"/>
                <path d="M9450 13590 l0 -1000 935 0 935 0 0 1000 0 1000 -935 0 -935 0 0
-1000z"/>
                <path d="M7240 13300 l0 -700 615 0 615 0 0 700 0 700 -615 0 -615 0 0 -700z"/>
                <path d="M11297 12173 c-4 -3 -7 -420 -7 -925 l0 -918 870 0 870 0 0 925 0
925 -863 0 c-475 0 -867 -3 -870 -7z"/>
                <path d="M9440 11385 l0 -585 610 0 610 0 0 585 0 585 -610 0 -610 0 0 -585z"/>
                <path d="M9734 10351 c-2 -2 -4 -361 -4 -798 l0 -793 740 0 740 0 -2 795 -3
795 -733 3 c-404 1 -736 0 -738 -2z"/>
                <path d="M7660 8840 l0 -580 700 0 700 0 0 580 0 580 -700 0 -700 0 0 -580z"/>
                <path d="M8760 5900 l84 -80 191 0 190 0 -275 -270 -275 -269 405 0 405 0 85
79 84 80 -274 0 -275 0 270 270 270 270 -485 0 -485 -1 85 -79z"/>
                <path d="M9783 5894 l-93 -86 0 -264 0 -264 125 0 125 0 0 100 0 100 235 0
235 0 0 -100 0 -100 115 0 115 0 0 269 0 269 -89 81 -89 81 -293 0 -294 0 -92
-86z m617 -159 l0 -85 -235 0 -235 0 0 85 0 85 235 0 235 0 0 -85z"/>
                <path d="M10730 5630 l0 -350 120 0 120 0 0 195 c0 107 3 195 6 195 3 0 127
-88 275 -195 l268 -195 76 0 75 0 0 350 0 350 -120 0 -120 0 -2 -199 -3 -199
-270 199 -270 198 -77 1 -78 0 0 -350z"/>
                <path d="M11760 5630 l0 -350 413 0 412 1 98 87 97 87 0 171 0 172 -100 91
-100 91 -410 0 -410 0 0 -350z m770 0 l0 -190 -265 0 -265 0 0 190 0 190 265
0 265 0 0 -190z"/>
                <path d="M12951 5894 l-91 -86 0 -183 0 -182 101 -81 101 -82 312 0 311 0 93
81 92 80 0 184 0 183 -92 86 -93 86 -322 0 -322 0 -90 -86z m679 -264 l0 -190
-265 0 -265 0 0 190 0 190 265 0 265 0 0 -190z"/>
                <path d="M14430 5630 l0 -350 125 0 125 0 0 115 0 115 279 0 278 0 102 125
102 125 -102 110 -102 110 -403 0 -404 0 0 -350z m734 150 l27 -40 -28 -35
-28 -35 -227 0 -228 0 0 75 0 75 229 0 228 0 27 -40z"/>
                <path d="M15470 5630 l0 -350 115 0 114 0 3 118 3 117 151 3 151 3 79 -121 79
-120 124 0 123 0 -18 28 c-9 15 -46 70 -81 122 -35 52 -63 100 -63 106 0 6 36
57 80 113 44 57 80 105 80 107 0 2 -39 53 -87 114 l-86 110 -384 0 -383 0 0
-350z m676 155 l26 -35 -23 -35 -24 -35 -212 0 -213 0 0 70 0 70 209 0 210 0
27 -35z"/>
                <path d="M16490 5630 l0 -350 115 0 115 0 0 350 0 350 -115 0 -115 0 0 -350z"/>
                <path d="M16810 5630 l0 -350 120 0 120 0 0 195 c0 107 3 195 6 195 3 0 127
-88 275 -195 l268 -195 76 0 75 0 0 350 0 350 -120 0 -120 0 -2 -199 -3 -199
-270 199 -270 198 -77 1 -78 0 0 -350z"/>
                <path d="M17931 5900 l84 -79 113 -1 112 0 0 -270 0 -270 120 0 120 0 0 270 0
270 113 0 112 1 82 79 82 80 -511 0 -511 0 84 -80z"/>
                <path d="M19473 5892 l-93 -88 0 -170 0 -169 93 -93 92 -92 313 0 312 0 95 82
95 82 0 133 0 133 -310 0 -310 0 0 -75 0 -75 200 0 200 0 0 -55 0 -55 -265 0
-265 0 0 190 0 190 371 2 371 3 -91 73 -90 72 -313 0 -313 -1 -92 -87z"/>
                <path d="M20440 5630 l0 -350 115 0 114 0 3 118 3 117 151 3 151 3 79 -121 79
-120 124 0 123 0 -18 28 c-9 15 -46 70 -81 122 -35 52 -63 100 -63 106 0 6 36
57 80 113 44 57 80 105 80 107 0 2 -39 53 -87 114 l-86 110 -384 0 -383 0 0
-350z m676 155 l26 -35 -23 -35 -24 -35 -212 0 -213 0 0 70 0 70 209 0 210 0
27 -35z"/>
                <path d="M21553 5894 l-93 -86 0 -264 0 -264 125 0 125 0 0 100 0 100 235 0
235 0 0 -100 0 -100 115 0 115 0 0 269 0 269 -89 81 -89 81 -293 0 -294 0 -92
-86z m617 -159 l0 -85 -235 0 -235 0 0 85 0 85 235 0 235 0 0 -85z"/>
                <path d="M22500 5630 l0 -350 125 0 125 0 0 115 0 115 279 0 278 0 102 125
102 125 -102 110 -102 110 -403 0 -404 0 0 -350z m734 150 l27 -40 -28 -35
-28 -35 -227 0 -228 0 0 75 0 75 229 0 228 0 27 -40z"/>
                <path d="M23540 5630 l0 -350 120 0 120 0 0 145 0 145 245 0 245 0 0 -145 0
-145 120 0 120 0 0 350 0 350 -120 0 -120 0 0 -125 0 -125 -245 0 -245 0 0
125 0 125 -120 0 -120 0 0 -350z"/>
                <path d="M24600 5630 l0 -350 115 0 115 0 0 350 0 350 -115 0 -115 0 0 -350z"/>
                <path d="M25012 5898 l-92 -83 0 -185 1 -185 91 -82 92 -83 280 0 281 0 85 80
85 79 -332 1 -333 0 0 190 0 190 336 2 337 3 -89 77 -89 77 -280 1 -281 0 -92
-82z"/>
                <path d="M8690 5140 c0 -20 7 -20 8570 -20 8563 0 8570 0 8570 20 0 20 -7 20
-8570 20 -8563 0 -8570 0 -8570 -20z"/>
                <path d="M8740 4700 l0 -150 115 0 115 0 0 30 0 30 -80 0 -80 0 0 120 0 120
-35 0 -35 0 0 -150z"/>
                <path d="M9520 4820 c0 -20 5 -30 15 -30 19 0 19 -9 -2 -32 -20 -23 -5 -43 25
-34 22 7 42 53 42 97 0 27 -3 29 -40 29 -38 0 -40 -2 -40 -30z"/>
                <path d="M10170 4700 l0 -150 40 0 40 0 0 150 0 150 -40 0 -40 0 0 -150z"/>
                <path d="M10830 4700 l0 -150 34 0 c31 0 34 3 40 38 3 20 6 57 7 82 1 44 1 43
23 -35 l23 -80 38 0 39 0 22 85 22 85 1 -87 1 -88 40 0 40 0 0 150 0 150 -58
0 -58 0 -24 -92 -24 -93 -29 93 -28 92 -55 0 -54 0 0 -150z"/>
                <path d="M11730 4701 l0 -151 40 0 40 0 0 55 0 55 64 0 c53 0 67 4 90 25 35
33 36 92 2 132 -23 27 -28 28 -130 31 l-106 4 0 -151z m166 75 c30 -23 7 -50
-45 -54 -41 -3 -41 -3 -41 32 0 34 2 36 33 36 18 0 42 -6 53 -14z"/>
                <path d="M12560 4700 l0 -150 40 0 40 0 0 65 c0 91 22 89 94 -12 36 -50 40
-53 82 -53 24 0 44 2 44 5 0 11 -73 115 -81 115 -18 0 -8 16 21 32 35 20 47
58 30 98 -16 39 -53 50 -171 50 l-99 0 0 -150z m186 75 c16 -13 17 -16 4 -25
-8 -5 -36 -10 -62 -10 -45 0 -48 2 -48 25 0 23 4 25 43 25 24 0 52 -7 63 -15z"/>
                <path d="M13420 4700 l0 -150 40 0 40 0 0 150 0 150 -40 0 -40 0 0 -150z"/>
                <path d="M14070 4700 l0 -150 34 0 c31 0 34 3 40 38 3 20 6 57 7 82 1 44 1 43
23 -35 l23 -80 38 0 39 0 22 85 22 85 1 -87 1 -88 40 0 40 0 0 150 0 150 -58
0 -58 0 -24 -92 -24 -93 -29 93 -28 92 -55 0 -54 0 0 -150z"/>
                <path d="M14980 4700 l0 -150 130 0 130 0 0 30 0 30 -90 0 -90 0 0 30 0 30 80
0 80 0 0 30 0 30 -80 0 -80 0 0 30 0 30 85 0 85 0 0 30 0 30 -125 0 -125 0 0
-150z"/>
                <path d="M15810 4700 l0 -150 40 0 40 0 0 65 c0 91 22 89 94 -12 36 -50 40
-53 82 -53 24 0 44 2 44 5 0 11 -73 115 -81 115 -18 0 -8 16 21 32 35 20 47
58 30 98 -16 39 -53 50 -171 50 l-99 0 0 -150z m186 75 c16 -13 17 -16 4 -25
-8 -5 -36 -10 -62 -10 -45 0 -48 2 -48 25 0 23 4 25 43 25 24 0 52 -7 63 -15z"/>
                <path d="M16670 4700 l0 -150 40 0 40 0 0 150 0 150 -40 0 -40 0 0 -150z"/>
                <path d="M17320 4700 l0 -150 130 0 130 0 0 30 0 30 -90 0 -90 0 0 30 0 30 80
0 80 0 0 30 0 30 -80 0 -80 0 0 30 0 30 85 0 85 0 0 30 0 30 -125 0 -125 0 0
-150z"/>
                <path d="M18810 4701 l0 -151 94 0 c52 0 106 4 120 10 43 16 66 66 66 143 0
63 -2 70 -34 104 l-34 37 -106 4 -106 4 0 -151z m158 78 c24 -8 34 -20 41 -47
21 -74 -9 -122 -76 -122 l-43 0 0 90 c0 88 1 90 24 90 12 0 37 -5 54 -11z"/>
                <path d="M19670 4753 c0 -174 21 -203 145 -203 60 0 69 3 96 29 29 29 29 30
29 150 l0 121 -34 0 -33 0 -5 -104 c-5 -114 -14 -136 -58 -136 -49 0 -60 25
-60 138 l0 102 -40 0 -40 0 0 -97z"/>
                <path d="M21180 4700 l0 -150 34 0 c31 0 34 3 40 38 3 20 6 57 7 82 1 44 1 43
23 -35 l23 -80 38 0 39 0 22 85 22 85 1 -87 1 -88 40 0 40 0 0 150 0 150 -58
0 -58 0 -24 -92 -24 -93 -29 93 -28 92 -55 0 -54 0 0 -150z"/>
                <path d="M22113 4700 l-62 -150 40 0 c35 0 40 3 53 35 15 34 16 35 71 35 55 0
56 -1 71 -35 13 -32 18 -35 54 -35 22 0 40 3 40 8 -1 4 -26 70 -58 147 l-57
140 -45 3 -46 3 -61 -151z m116 -18 c-43 -7 -48 0 -31 43 l16 39 17 -39 c18
-39 18 -40 -2 -43z"/>
                <path d="M22940 4700 l0 -150 40 0 40 0 0 65 c0 91 22 89 94 -12 36 -50 40
-53 82 -53 24 0 44 2 44 5 0 11 -73 115 -81 115 -18 0 -8 16 21 32 35 20 47
58 30 98 -16 39 -53 50 -171 50 l-99 0 0 -150z m186 75 c16 -13 17 -16 4 -25
-8 -5 -36 -10 -62 -10 -45 0 -48 2 -48 25 0 23 4 25 43 25 24 0 52 -7 63 -15z"/>
                <path d="M23886 4840 c-82 -25 -120 -131 -79 -217 24 -52 65 -73 142 -73 59 0
65 2 98 35 40 40 40 65 -1 76 -24 7 -32 3 -53 -22 -31 -36 -65 -38 -98 -4 -43
42 -29 123 24 145 26 10 35 10 56 -4 14 -9 25 -21 25 -26 0 -13 67 -13 75 0 3
5 -1 23 -10 40 -26 51 -103 72 -179 50z"/>
                <path d="M24650 4700 l0 -150 40 0 40 0 0 60 0 61 58 -3 57 -3 3 -57 3 -58 34
0 35 0 0 150 0 150 -35 0 -35 0 0 -60 0 -60 -60 0 -60 0 0 60 0 60 -40 0 -40
0 0 -150z"/>
                <path d="M25510 4700 l0 -150 130 0 130 0 0 30 0 30 -90 0 -90 0 0 30 0 30 80
0 80 0 0 30 0 30 -80 0 -80 0 0 30 0 30 85 0 85 0 0 30 0 30 -125 0 -125 0 0
-150z"/>
        </g>
</svg>
